<?xml version="1.0" encoding="utf-8"?>
<!-- Generator: Adobe Illustrator 23.0.3, SVG Export Plug-In . SVG Version: 6.00 Build 0)  -->
<svg version="1.1" id="Layer_1" xmlns="http://www.w3.org/2000/svg" xmlns:xlink="http://www.w3.org/1999/xlink" x="0px" y="0px"
	 viewBox="0 0 772.4 162.3" style="enable-background:new 0 0 772.4 162.3;" xml:space="preserve">
<style type="text/css">
	.st0{fill-rule:evenodd;clip-rule:evenodd;fill:#FFFFFF;}
	.st1{fill:#FFFFFF;}
</style>
<title>Asset 1</title>
<g>
	<g id="Layer_1-2">
		<path class="st0" d="M26.2,140.5C-6.7,110.4-9,59.4,21.1,26.4s81.1-35.2,114-5.1s35.2,81.1,5.1,114C114.3,163.7,71.9,169.9,39,150
			l0.4-39.6V98.2c0,0-0.1-8.8-0.1-14.2c-0.1-1.5,0.1-3,0.5-4.5c2.2-5.3,7.3-8.8,13.1-8.8c5.8,0,11.1,3.5,15.3,7.6
			c2.9,3,5.5,6.2,7.8,9.7c2.4,3.6,5.2,7,8.3,10.1c5.1,5,11.2,9.4,18.4,10.9c3.2,0.6,6.4,0.7,9.7,0.4c3-0.3,6-1.2,8.7-2.6
			c6.2-3.1,10.9-8.4,13.2-14.9c1.8-5.3,1.7-11-0.3-16.3c-3-7.6-9.4-13.5-17.2-16c-2.4-0.7-4.9-1.1-7.4-1c-2-0.1-4,0-6,0.3
			c-4.4,1-8.5,2.8-12.2,5.4c-2.8,2-5.5,4.3-7.9,6.7l2.8,3.6c1.5,2,2.9,4.1,4.2,6.3l0.4,0.1l3.6-3.4l0.1-0.1c2.9-2.9,6.4-5,10.3-6.3
			c2.9-0.9,5.9-0.8,8.8,0.1c4.9,1.7,9,6.2,9.3,11.3c0.3,3.7-0.9,7.4-3.4,10.2c-3.8,4.3-10.3,5.5-15.7,3.6s-9.6-5.8-13.2-10.1
			c-2.2-2.7-4-5.6-6-8.4c-5.9-8.3-14-15.5-23.8-18.4c-2.8-0.7-5.7-1-8.5-0.9c-1.6,0-3.1,0.1-4.6,0.4c-12.5,2.7-21.4,14.1-21,25.9
			L26.2,140.5L26.2,140.5z M42.2,98.1c4.2,0,8.5-0.3,12.7-0.8c5-0.7,9.3-3.7,12.9-7.1l3.3-3.2l0.5,0.1c1.2,2.1,2.6,4.1,4,6.1
			l0.2,0.3l2.8,3.6l-2.9,2.7c-4.5,4.1-9.8,7.1-15.6,8.9c-5.6,1.7-13.8,1.8-17.9,1.8L42.2,98.1L42.2,98.1z"/>
		<path class="st1" d="M226.8,54.9c0-8.1,2.4-14.5,7.2-19.2s11.5-7,20.3-7c2.6,0.1,5.1,0.5,7.6,1.3c2.4,0.6,4.6,1.7,6.5,3.2
			l-5.4,13.7c-1.3-0.5-2.7-1-4.1-1.4c-1.2-0.3-2.4-0.5-3.7-0.5c-3.3,0-5.7,1.2-7.2,3.6c-1.6,2.7-2.4,5.9-2.3,9.1v4.1H259l6,14.7
			h-19.3v54.3h-18.9V76.2h-10.9V61.5h10.9V54.9z"/>
		<path class="st1" d="M311.5,132.2c-12.2,0-21.8-3.3-28.8-10c-7-6.7-10.5-15.6-10.5-26.9c0-11.2,3.2-20.2,9.5-27s15-10.2,25.9-10.2
			c11,0,19.1,3.7,24.3,11c5.2,7.3,7.8,16,7.8,25.9v5.8h-47.5c0.7,4.3,3,8.3,6.4,11.1c3.4,2.8,7.8,4.1,13.4,4.1
			c2.9,0,5.8-0.4,8.6-1.2c3-1,6-2.2,8.9-3.6l5.5,13.7c-3.6,2.7-7.7,4.5-12,5.5C319.3,131.5,315.4,132.1,311.5,132.2L311.5,132.2z
			 M321.8,88.2c-1-4.7-2.7-8.3-5.2-10.5c-2.6-2.3-6-3.5-9.4-3.4c-3.6-0.1-7.1,1.2-9.7,3.6c-2.6,2.4-4.3,5.8-5.1,10.4L321.8,88.2z"/>
		<path class="st1" d="M387.8,132.2c-12.2,0-21.8-3.3-28.8-10c-7-6.7-10.5-15.6-10.5-26.9c0-11.2,3.2-20.2,9.5-27
			c6.3-6.8,15-10.2,25.9-10.2c11,0,19.1,3.7,24.3,11c5.2,7.3,7.8,16,7.8,25.9v5.8h-47.5c0.7,4.3,3,8.3,6.4,11.1
			c3.4,2.8,7.8,4.1,13.4,4.1c2.9,0,5.8-0.4,8.6-1.2c3-1,6-2.2,8.9-3.6l5.5,13.7c-3.6,2.7-7.7,4.5-12,5.5
			C395.5,131.5,391.7,132.1,387.8,132.2L387.8,132.2z M398.1,88.2c-1-4.7-2.7-8.2-5.2-10.5c-2.6-2.3-6-3.5-9.4-3.4
			c-3.6-0.1-7.1,1.2-9.7,3.6c-2.6,2.4-4.3,5.8-5.1,10.4L398.1,88.2z"/>
		<path class="st1" d="M461.7,73.4c-6.6,0-11.2,2.3-13.7,7c-2.5,4.4-3.8,9.3-3.9,14.4c-0.1,5.2,1.1,10.2,3.5,14.8
			c2.3,4.4,7,6.5,14.1,6.5c2.4,0,4.8-0.6,7-1.5c2.4-1,4.7-2.2,6.9-3.6V78.5c-2.2-1.5-4.5-2.7-6.9-3.6
			C466.4,74,464.1,73.5,461.7,73.4L461.7,73.4z M494.7,28v102.5h-9.9l-5.2-6.8c-3.3,2.8-7.2,4.9-11.3,6.3c-3.7,1.4-7.7,2.2-11.7,2.3
			c-10.3,0-18.2-3.6-23.7-10.7s-8.3-16.1-8.3-26.7c0-10.7,2.9-19.6,8.8-26.7s13.9-10.7,24-10.7c3,0.1,6,0.5,8.9,1.4
			c3.2,0.9,6.4,2.2,9.3,3.8v-33L494.7,28L494.7,28z"/>
		<polygon class="st1" points="530.3,28 530.3,130.5 511.6,130.5 511.6,29.6 530.3,28 		"/>
		<path class="st1" d="M735.3,116.1c6.5,0,11-2.3,13.7-7c2.5-4.4,3.9-9.3,3.9-14.3c0.1-5.2-1.1-10.2-3.5-14.8
			c-2.3-4.4-7-6.5-14.1-6.5c-2.2,0-4.3,0.4-6.3,1.1c-2.2,0.7-4.3,1.7-6.2,3v34.6c2,1.2,4,2.2,6.2,2.9
			C731,115.7,733.2,116.1,735.3,116.1L735.3,116.1z M704.1,60.1h9.6l4.1,5.2c3.4-2.5,7.2-4.5,11.2-5.8c3.6-1.3,7.5-2.1,11.3-2.2
			c10.4,0,18.3,3.6,23.8,10.7c5.5,7.2,8.3,16.1,8.3,26.7c0,10.7-2.8,19.6-8.5,26.7c-5.7,7.1-13.5,10.7-23.6,10.7
			c-2.9-0.1-5.7-0.5-8.5-1.3c-3.1-0.9-6.1-2.1-8.9-3.6v33.5l-18.7,1.5L704.1,60.1L704.1,60.1z"/>
		<path class="st1" d="M578.6,56.9c19.1,0.2,35.1,13.3,45.8,29.1c7.5,11.4,15.7,23.7,29,27.7c10.3,3.1,22.9-2.8,26-13.8
			c4.1-14.5-10.5-31.9-28.6-24.8c-4.4,1.9-8.5,4.6-11.9,8l-0.8,0.8l-3.7,3.6c-2.3,1.8-2.4-1.6-4.5-4.6c-1-1.5-2.4-3.4-2.4-3.4
			l-3.1-4.2c-0.5-1.5,2.1-3.1,3.8-4.7c7.8-7.3,17.5-13.3,28-13.5c5.9-0.1,11.8,0.2,17.4,2.5c18.2,7.6,28.6,31.1,19.4,50.3
			c-5.7,11.9-17.7,20.9-31.5,21c-9.4,0.1-18.6-2.6-26.4-8c-9.7-6.8-17-16.3-23.5-26.1s-14.6-19.2-25.2-22.5
			c-13-4.1-28.6,6.8-27,22.3c1.2,12.4,16.1,22.3,30.1,15.8c4.5-2.2,8.6-5.1,12.1-8.7l3.3-3.3c1.7-1.4,2.2,0.9,3,2.4
			c1.2,2,2.6,3.8,3.9,5.7l3,4.1c0.8,1.4-1.7,3-3.4,4.6c-8.2,7.7-18.4,13.8-29.8,13.8c-14.1,0-28.1-7.2-34.6-19.6
			c-7.2-13.6-4.7-31.6,5.8-42.8C559.5,61.2,568.8,57,578.6,56.9L578.6,56.9z"/>
	</g>
</g>
</svg>
