<svg width="120" height="34" viewBox="0 0 120 34" fill="none" xmlns="http://www.w3.org/2000/svg">
  <g id="logo">
  <path id="path44" d="M47.8065 13.777C47.1472 13.777 46.561 13.9097 46.0471 14.1744C45.5323 14.4389 45.0898 14.8061 44.7189 15.2742C44.3485 15.743 44.0659 16.3024 43.87 16.954C43.6741 17.6064 43.577 18.3288 43.577 19.1234C43.577 19.8974 43.6741 20.6102 43.87 21.2617C44.0659 21.9134 44.3485 22.4735 44.7189 22.9416C45.0898 23.4106 45.5323 23.7816 46.0471 24.0566C46.561 24.3315 47.1472 24.469 47.8065 24.469C48.424 24.469 49.0151 24.3522 49.5813 24.1177C50.1474 23.8841 50.6358 23.5424 51.0477 23.0942C51.4595 22.6468 51.7888 22.0865 52.0354 21.4143C52.2827 20.742 52.4065 19.9785 52.4065 19.1234C52.4065 18.2881 52.2772 17.5396 52.0202 16.8777C51.7623 16.2165 51.4234 15.6555 51.0019 15.1978C50.5795 14.7393 50.0912 14.388 49.5355 14.1442C48.9797 13.8994 48.4031 13.777 47.8065 13.777ZM47.4974 26.9133C46.4069 26.9133 45.4392 26.7194 44.5959 26.3325C43.752 25.9462 43.0412 25.4058 42.4655 24.7137C41.8889 24.0216 41.4568 23.1967 41.1693 22.2392C40.8802 21.2824 40.7364 20.2437 40.7364 19.1234C40.7364 18.0641 40.8963 17.0661 41.2152 16.1292C41.5339 15.1931 41.9868 14.3682 42.5739 13.6545C43.1602 12.9426 43.8652 12.3768 44.6884 11.9596C45.5114 11.5424 46.4374 11.3334 47.4669 11.3334C48.6401 11.3334 49.607 11.5322 50.369 11.9287C51.1295 12.3259 51.8604 12.9426 52.5606 13.777L52.869 11.6385H55.03V34.0001H52.2522V24.7137C52.0049 25.0396 51.6852 25.3399 51.2951 25.6149C50.9038 25.8898 50.492 26.1241 50.0599 26.3173C49.6279 26.5111 49.1903 26.6581 48.7478 26.7599C48.3053 26.8617 47.8885 26.9133 47.4974 26.9133" fill="#1A7DA9"/>
  <path id="path48" d="M61.4621 26.209H58.6034V11.334L61.4621 13.904V26.209Z" fill="#1A7DA9"/>
  <path id="path52" d="M69.7057 26.8051C67.4736 26.8051 65.721 26.3606 64.4485 25.4714L64.7929 22.7725C65.2096 23.1446 65.8511 23.4972 66.7173 23.8271C67.5827 24.1579 68.5376 24.3234 69.5812 24.3234C71.6252 24.3234 72.6478 23.6933 72.6478 22.4313C72.6478 21.2946 71.6252 20.4571 69.5812 19.9188C68.9552 19.7744 68.3649 19.6042 67.813 19.4074C67.2595 19.2113 66.7646 18.9531 66.3258 18.6319C65.8877 18.3117 65.528 17.9034 65.2464 17.4064C64.9647 16.9101 64.8027 16.2905 64.7611 15.5459C64.7611 14.2429 65.2308 13.1576 66.1694 12.2887C67.1089 11.4206 68.5586 10.9864 70.5198 10.9864C71.9176 10.9864 73.3047 11.3172 74.6821 11.9789L74.3378 14.522C73.2526 13.6126 72.0005 13.1576 70.5824 13.1576C68.6003 13.1576 67.6096 13.8451 67.6096 15.2199C67.6096 15.5532 67.6608 15.8338 67.7658 16.063C67.87 16.2929 68.0572 16.4955 68.3291 16.6722C68.6003 16.8497 68.965 17.0215 69.4241 17.1886C69.8831 17.3547 70.4676 17.5411 71.1767 17.7476C71.6147 17.872 72.0893 18.043 72.6005 18.26C73.1117 18.4771 73.5863 18.7611 74.0242 19.1128C74.463 19.4646 74.8278 19.8988 75.1199 20.4151C75.4123 20.9322 75.558 21.5527 75.558 22.2765C75.558 22.7725 75.4742 23.2898 75.308 23.8271C75.1404 24.3654 74.8383 24.851 74.4004 25.285C73.9623 25.7192 73.3624 26.0814 72.6005 26.3702C71.8386 26.66 70.8738 26.8051 69.7057 26.8051Z" fill="#1A7DA9"/>
  <path id="path56" d="M85.0703 26.8051C83.8387 26.8051 82.7544 26.6035 81.8157 26.2C80.8771 25.7967 80.0786 25.2383 79.4215 24.525C78.7646 23.8119 78.2688 22.9744 77.9352 22.0126C77.6014 21.0517 77.4345 20.0019 77.4345 18.8643C77.4345 17.7066 77.6014 16.6471 77.9352 15.6855C78.2688 14.7237 78.7532 13.8918 79.3906 13.1883C80.0265 12.4856 80.8193 11.9434 81.7686 11.5602C82.7177 11.1777 83.8077 10.9864 85.0387 10.9864C87.0834 10.9864 88.6586 11.2866 89.7643 11.8862L89.3262 14.3986C88.0327 13.778 86.7082 13.4675 85.352 13.4675C83.662 13.4675 82.3994 13.933 81.5649 14.8633C80.7306 15.7935 80.3138 17.1272 80.3138 18.8643C80.3138 20.6015 80.7306 21.9505 81.5649 22.9121C82.3994 23.8739 83.662 24.3548 85.352 24.3548C86.7286 24.3548 88.0636 24.0442 89.3579 23.4238L89.7333 25.6571C88.5855 26.4226 87.0315 26.8051 85.0703 26.8051Z" fill="#1A7DA9"/>
  <path id="path60" d="M105.057 26.604H102.529L102.212 24.921C101.243 26.2514 99.8108 26.916 97.914 26.916C94.0998 26.916 92.1931 24.6827 92.1931 20.2148V11.3328H95.0379V19.4356C95.0379 22.7604 96.2391 24.4223 98.6407 24.4223C100.284 24.4223 101.475 23.8411 102.212 22.6769V11.3328L105.057 14.0788V26.604Z" fill="#1A7DA9"/>
  <path id="path64" d="M113.267 26.8051C111.034 26.8051 109.282 26.3606 108.009 25.4714L108.354 22.7725C108.771 23.1446 109.412 23.4972 110.278 23.8271C111.144 24.1579 112.099 24.3234 113.142 24.3234C115.186 24.3234 116.209 23.6933 116.209 22.4313C116.209 21.2946 115.186 20.4571 113.142 19.9188C112.516 19.7744 111.926 19.6042 111.374 19.4074C110.82 19.2113 110.325 18.9531 109.887 18.6319C109.449 18.3117 109.089 17.9034 108.807 17.4064C108.526 16.9101 108.364 16.2905 108.322 15.5459C108.322 14.2429 108.792 13.1576 109.73 12.2887C110.67 11.4206 112.12 10.9864 114.081 10.9864C115.478 10.9864 116.866 11.3172 118.243 11.9789L117.899 14.522C116.813 13.6126 115.561 13.1576 114.143 13.1576C112.161 13.1576 111.17 13.8451 111.17 15.2199C111.17 15.5532 111.222 15.8338 111.327 16.063C111.431 16.2929 111.618 16.4955 111.89 16.6722C112.161 16.8497 112.526 17.0215 112.985 17.1886C113.444 17.3547 114.029 17.5411 114.738 17.7476C115.176 17.872 115.65 18.043 116.161 18.26C116.673 18.4771 117.147 18.7611 117.585 19.1128C118.024 19.4646 118.389 19.8988 118.681 20.4151C118.973 20.9322 119.119 21.5527 119.119 22.2765C119.119 22.7725 119.035 23.2898 118.869 23.8271C118.701 24.3654 118.399 24.851 117.961 25.285C117.523 25.7192 116.923 26.0814 116.161 26.3702C115.4 26.66 114.435 26.8051 113.267 26.8051Z" fill="#1A7DA9"/>
  <path id="path32" d="M9.16836 6.15414e-05C4.12564 6.15414e-05 -3.73386e-07 4.14286 -3.73386e-07 9.20614V22.926C-3.73386e-07 27.9893 4.12564 32.1321 9.16836 32.1321H22.8318C23.8301 32.1321 25.0358 32.1808 25.416 32.2117C25.9909 32.2043 28.9981 32.4759 30.1627 33.9038C30.7216 34.589 31.7509 31.4344 31.0319 30.2157L30.0965 28.4675C31.2728 26.9193 32 25.0121 32 22.926V9.20614C32 4.14286 27.8744 6.15414e-05 22.8318 6.15414e-05H9.16836ZM4.2834 20.7591V11.3222C4.2834 7.44652 7.44136 4.27577 11.3012 4.27577H20.699C24.5586 4.27577 27.7168 7.44652 27.7168 11.3222V20.3403C27.7159 20.4747 27.7112 20.6975 27.6942 20.9793C27.6851 21.2701 27.6517 21.5543 27.6078 21.8356C27.5859 21.9977 27.5079 22.6898 27.2633 23.1806C26.1765 22.7897 23.5607 23.6352 23.9869 23.8547C25.5831 24.6765 27.4248 28.8271 27.4248 28.8271C26.0741 27.7998 22.2688 27.8054 20.699 27.8054H11.3012C7.44136 27.8054 4.2834 24.6348 4.2834 20.7591" fill="url(#paint0_linear)"/>
  </g>
  <defs>
    <linearGradient id="paint0_linear" x1="3.52223e-05" y1="17" x2="32" y2="17" gradientUnits="userSpaceOnUse">
      <stop stop-color="#94CA62"/>
      <stop offset="0.996612" stop-color="#20AEB8"/>
      <stop offset="1" stop-color="#20AEB8"/>
    </linearGradient>
  </defs>
</svg>
