<svg width="591" height="198" xmlns="http://www.w3.org/2000/svg"><g fill="#FC0F3A" fill-rule="evenodd"><path d="M522.818 113.705c-2.213 19.755-15.28 33.954-26.948 33.954-.389 0-.778-.013-1.17-.041-11.167-.339-13.442-9.906-11.3-18.41 2.067-8.21 5.802-15.982 8.03-19.135 4.403-6.232 11.777-13.42 20.877-11.96 10.276 1.652 10.717 9.688 10.511 15.592m-204.371 22.679c-4.312 6.2-11.432 9.505-19.378 9.566-7.263 0-11.6-5.58-11.6-14.929 0-10.911 7.314-23 14.455-30.056 3.957-3.912 12.982-9.495 20.877-1.933 3.151 3.02 9.503 17.419-4.354 37.352m271.75-62.985c-2.008-10.166-11.01-16.695-20.075-15.946-14.454 1.196-18.747 13.574-18.469 18.337.034.23 0 3.987 0 3.987s-4.968 1.594-9.358 1.445c-8.112-8.053-19.588-12.476-32.436-12.476-14.55 0-25.597 5.88-36.447 16.554-6.709 6.602-15.712 21.278-19.048 30.131 0 0-9.508 29.124-23.962 36.897-3.236 1.74-6.44 1.292-8.835.01-5.35-2.866-3.348-8.78-3.348-8.78l15.445-54.363s2.64-7.15-1.656-13.405c-1.749-2.546-5.316-6.13-9.636-7.175-5.979-1.446-11.186.468-14.454 2.392-5.754 3.388-7.227 11.161-7.227 11.161s-1.744 7.567-5.62 20.73c-.978 3.318-4.998 16.496-5.622 18.337-2.63 8.408-4.913 14.232-7.59 18.338-3.802 5.83-8.877 10.235-11.681 11.958-2.74 1.685-5.985 2.176-8.03 2.023-3.413-.256-5.723-2.309-6.48-3.617-1.842-3.187-1.4-4.884.859-11.96l26.038-90.091s.616-2.53.595-3.986c-.02-1.471-.22-3.474-.937-5.581-1.406-4.126-4.808-8.65-12.045-10.365-11.359-2.69-17.2 4.61-19.229 7.974-.577.956-1.008 2.158-1.307 3.189-1.498 5.172-6.425 22.09-11.437 38.269-5.871-5.637-19.346-8.64-28.2-8.64-18.173 0-31.814 13.643-41.102 30.165-3.032 5.395-5.206 10.246-7.129 15.945a126.555 126.555 0 0 1-4.818 12.182c-5.168 11.295-11.173 19.016-16.862 23.696-3.238 2.663-6.658 2.997-9.238 2.464a9.752 9.752 0 0 1-2.006-.802c-2.016-1.08-3.095-2.563-3.414-4.053-.516-2.409.3-5.035.458-5.581 4.12-14.188 14.273-49.95 15.054-52.62 0 0 4.751-14.152-9.636-20.73-2.553-1.167-8.666-2.358-13.65 0-7.282 3.445-8.834 10.365-8.834 10.365l-16.914 58.998c-1.899 8.762-1.522 16.364 2.678 23.16l-.04.027c.136.2.282.381.42.576a28.6 28.6 0 0 0 2.563 3.344c.822.923 2.004 1.912 3.449 2.881 4.216 3.177 9.087 4.92 14.218 5.62 1.584.215 5.955 1 13.65.022 3.95-.503 7.69-1.43 11.242-3.048 1.678-.763 6.692-3.15 11.241-7.24 2.985-2.682 5.78-5.46 8.16-8.488a38.275 38.275 0 0 0 2.28 4.74c.956 1.664 1.222 2.515 2.408 3.918 4.16 4.922 10.555 8.836 17.666 9.667 2.323.271 9.134.698 16.323-.897 8.872-1.967 18.51-6.006 25.038-12.417 4.364 9.938 17.747 14.012 22.878 14.012 15.658.996 27.904-1.595 40.15-14.351 6.242 10.443 16.108 14.202 26.498 14.383 20.878.366 33.525-10.397 41.86-22.331 6.723 15.421 22.237 21.626 41.034 21.626 16.582 0 27.744-5.154 39.16-18.462 16.964-21.227 16.407-48.648 16.06-51.025 4.55-1.328 11.437-2.886 19.272-5.58 15.357-5.283 21.48-15.548 20.075-25.513M200.726 47.782c-.123-18.741-2.288-38.164-20.054-46.137-3.307-1.485-15.725-4.186-25.695 3.986-6.092 4.993-10.383 13.44-10.44 20.73-.166 21.79 22.484 26.31 22.484 26.31s-3.212 49.43-48.179 89.293c-.145.129-2.205 1.934-4.612 4.023-2.667 2.316-6.798.086-6.288-3.396l.443-3.02 3.844-26.21c2.014-16.078 4.154-33.85 2.598-47.137-1.338-11.428-6.027-21.833-12.848-29.5-4.328-4.866-10.604-10.152-16.863-13.553-8.272-4.496-17.917-6.378-28.104-6.378C24.824 16.793 0 42.483 0 75.592c0 10.997 4.015 22.6 9.635 30.495 7.046 9.894 14.967 16.984 24.893 19.932 5.147 1.528 13.751.299 17.644-5.698 2.111-3.253 3.431-6.973 3.635-9.75.473-6.42-3.171-10.45-3.6-10.981-1.705-2.121-3.638-3.683-5.184-4.592-1.895-1.114-3.879-2.064-5.596-3.632-4.963-4.53-7.702-9.654-7.702-16.372 0-12.71 8.22-24.165 23.287-24.716 16.36-.598 22.958 13.12 24.09 18.338 1.752 8.074-.926 20.426-2.302 31.937l-7.676 70.517s-2.368 13.349 10.163 22.34c13.024 9.343 26.039 1.127 27.29.434 42.463-23.522 72.367-65.15 84.943-106.094 4.08-13.28 7.285-27.917 7.206-39.968M236.797 60.643c9.662 0 16.947-7.125 16.947-16.572 0-9.484-7.444-16.914-16.947-16.914-9.409 0-16.778 7.43-16.778 16.914 0 9.293 7.37 16.572 16.778 16.572"/><path d="M429.514 59.845c9.662 0 16.948-7.124 16.948-16.57 0-9.485-7.444-16.915-16.948-16.915-9.408 0-16.778 7.43-16.778 16.914 0 9.292 7.37 16.571 16.778 16.571"/></g></svg>